<svg width="170" height="43" viewBox="0 0 170 43" fill="none" xmlns="http://www.w3.org/2000/svg">
<g clip-path="url(#clip0_422_877)">
<path d="M169.922 36.2015C169.922 36.6073 169.935 37.0852 169.961 37.6351C169.987 38.0016 170 38.2438 170 38.3617C170 38.7152 169.83 38.8919 169.489 38.8919H166.936V38.2242C166.936 37.5696 166.681 36.843 166.171 36.0443L161.83 29.3673V38.8919H158.845V25.145H161.556C161.726 25.145 161.863 25.1712 161.968 25.2236C162.086 25.2629 162.197 25.3676 162.302 25.5378L166.936 32.588V25.145H169.922V36.2015Z" fill="#1A1A1A"/>
<path d="M150.878 39.0888C149.006 39.0888 147.546 38.467 146.499 37.2232C145.464 35.9663 144.947 34.2054 144.947 31.9405C144.947 29.7279 145.464 28.0128 146.499 26.7952C147.546 25.5645 149.006 24.9492 150.878 24.9492C152.75 24.9492 154.204 25.5645 155.238 26.7952C156.285 28.0128 156.809 29.7279 156.809 31.9405C156.809 34.2054 156.285 35.9663 155.238 37.2232C154.204 38.467 152.75 39.0888 150.878 39.0888ZM150.878 36.9286C151.86 36.9286 152.574 36.5358 153.019 35.7503C153.477 34.9517 153.706 33.6817 153.706 31.9405C153.706 30.2385 153.483 29.0078 153.038 28.2484C152.593 27.4891 151.873 27.1094 150.878 27.1094C149.883 27.1094 149.163 27.4891 148.718 28.2484C148.273 29.0078 148.05 30.2385 148.05 31.9405C148.05 33.6817 148.273 34.9517 148.718 35.7503C149.176 36.5358 149.896 36.9286 150.878 36.9286Z" fill="#1A1A1A"/>
<path d="M139.26 25.145H142.284V38.8919H139.26V25.145Z" fill="#1A1A1A"/>
<path d="M137.037 25.145C137.09 25.4592 137.116 25.7473 137.116 26.0091C137.116 26.4542 137.044 26.7816 136.9 26.991C136.756 27.2005 136.527 27.3052 136.213 27.3052H133.581V38.8919H130.596V27.3052H127.14V25.145H137.037Z" fill="#1A1A1A"/>
<path d="M124.58 38.8919C124.383 37.491 124.194 36.3586 124.01 35.4945H118.669C118.485 36.3586 118.295 37.491 118.099 38.8919H115.153C115.651 34.1394 117.209 29.5571 119.827 25.145H122.871C125.477 29.5309 127.028 34.1132 127.526 38.8919H124.58ZM123.539 33.3342C122.989 31.174 122.256 29.1905 121.339 27.3838C120.423 29.1905 119.69 31.174 119.14 33.3342H123.539Z" fill="#1A1A1A"/>
<path d="M115.539 25.145C115.591 25.4592 115.617 25.7473 115.617 26.0091C115.617 26.4542 115.545 26.7816 115.401 26.991C115.257 27.2005 115.028 27.3052 114.714 27.3052H112.082V38.8919H109.097V27.3052H105.641V25.145H115.539Z" fill="#1A1A1A"/>
<path d="M99.266 39.0888C97.6557 39.0888 96.3922 38.8139 95.4758 38.264C94.5593 37.7141 94.1011 36.9613 94.1011 36.0056C94.1011 35.5474 94.2909 35.1873 94.6706 34.9255C95.0634 34.6636 95.6133 34.5262 96.3202 34.5131C96.3988 35.2855 96.6934 35.8812 97.204 36.3002C97.7277 36.7191 98.4281 36.9286 99.3053 36.9286C100.916 36.9286 101.721 36.3329 101.721 35.1415C101.721 34.6702 101.498 34.284 101.053 33.9828C100.621 33.6817 99.8617 33.3741 98.775 33.0598C97.2302 32.6278 96.0977 32.0779 95.3776 31.4102C94.6575 30.7294 94.2975 29.8588 94.2975 28.7983C94.2975 27.6069 94.7557 26.6708 95.6722 25.99C96.6017 25.2961 97.8651 24.9492 99.4624 24.9492C100.746 24.9492 101.845 25.2568 102.762 25.8722C103.678 26.4744 104.307 27.3189 104.647 28.4055C104.424 28.6281 104.117 28.8245 103.724 28.9947C103.331 29.1649 102.984 29.25 102.683 29.25C102.448 29.25 102.264 29.2042 102.133 29.1125C102.002 29.0078 101.865 28.8179 101.721 28.543C101.459 28.0324 101.158 27.6658 100.818 27.4433C100.477 27.2207 100.025 27.1094 99.4624 27.1094C98.0615 27.1094 97.3611 27.5742 97.3611 28.5037C97.3611 28.8703 97.4331 29.1714 97.5771 29.4071C97.7211 29.6297 97.9699 29.8391 98.3234 30.0355C98.6768 30.2188 99.2136 30.4283 99.9337 30.664C101.243 31.096 102.245 31.4953 102.938 31.8619C103.632 32.2154 104.117 32.6016 104.392 33.0206C104.68 33.4395 104.824 33.9567 104.824 34.572C104.824 35.4623 104.588 36.2478 104.117 36.9286C103.659 37.6094 103.01 38.1396 102.173 38.5193C101.335 38.899 100.366 39.0888 99.266 39.0888Z" fill="#1A1A1A"/>
<path d="M81.6029 39.0888C79.9926 39.0888 78.7292 38.8139 77.8127 38.264C76.8962 37.7141 76.438 36.9613 76.438 36.0056C76.438 35.5474 76.6278 35.1873 77.0075 34.9255C77.4003 34.6636 77.9502 34.5262 78.6572 34.5131C78.7357 35.2855 79.0303 35.8812 79.5409 36.3002C80.0646 36.7191 80.765 36.9286 81.6422 36.9286C83.2525 36.9286 84.0577 36.3329 84.0577 35.1415C84.0577 34.6702 83.8351 34.284 83.39 33.9828C82.958 33.6817 82.1986 33.3741 81.112 33.0598C79.5671 32.6278 78.4346 32.0779 77.7145 31.4102C76.9944 30.7294 76.6344 29.8588 76.6344 28.7983C76.6344 27.6069 77.0926 26.6708 78.0091 25.99C78.9386 25.2961 80.202 24.9492 81.7993 24.9492C83.0823 24.9492 84.1821 25.2568 85.0986 25.8722C86.015 26.4744 86.6434 27.3189 86.9838 28.4055C86.7613 28.6281 86.4536 28.8245 86.0608 28.9947C85.6681 29.1649 85.3211 29.25 85.02 29.25C84.7843 29.25 84.601 29.2042 84.4701 29.1125C84.3392 29.0078 84.2017 28.8179 84.0577 28.543C83.7959 28.0324 83.4947 27.6658 83.1543 27.4433C82.8139 27.2207 82.3623 27.1094 81.7993 27.1094C80.3984 27.1094 79.698 27.5742 79.698 28.5037C79.698 28.8703 79.77 29.1714 79.914 29.4071C80.058 29.6297 80.3068 29.8391 80.6603 30.0355C81.0138 30.2188 81.5505 30.4283 82.2706 30.664C83.5798 31.096 84.5814 31.4953 85.2753 31.8619C85.9692 32.2154 86.4536 32.6016 86.7285 33.0206C87.0166 33.4395 87.1606 33.9567 87.1606 34.572C87.1606 35.4623 86.9249 36.2478 86.4536 36.9286C85.9954 37.6094 85.3473 38.1396 84.5094 38.5193C83.6715 38.899 82.7027 39.0888 81.6029 39.0888Z" fill="#1A1A1A"/>
<path d="M71.8398 38.8919C71.6434 37.491 71.4535 36.3586 71.2703 35.4945H65.9286C65.7453 36.3586 65.5555 37.491 65.3591 38.8919H62.4133C62.9108 34.1394 64.4688 29.5571 67.0873 25.145H70.1312C72.7366 29.5309 74.288 34.1132 74.7855 38.8919H71.8398ZM70.7989 33.3342C70.2491 31.174 69.5159 29.1905 68.5994 27.3838C67.683 29.1905 66.9498 31.174 66.3999 33.3342H70.7989Z" fill="#1A1A1A"/>
<path d="M61.1063 31.3513V37.4588C59.928 38.5455 58.2784 39.0888 56.1574 39.0888C54.0234 39.0888 52.4065 38.4931 51.3067 37.3017C50.2201 36.1103 49.6768 34.3494 49.6768 32.019C49.6768 30.605 49.9517 29.3678 50.5016 28.3073C51.0514 27.2338 51.8304 26.409 52.8385 25.8329C53.8466 25.2438 55.0184 24.9492 56.3538 24.9492C57.3488 24.9492 58.2457 25.0735 59.0443 25.3223C59.8429 25.558 60.5106 25.9115 61.0474 26.3828C60.9427 26.7886 60.7397 27.1814 60.4386 27.5611C60.1506 27.9408 59.9084 28.1306 59.712 28.1306C59.6203 28.1306 59.5352 28.1175 59.4567 28.0913C59.3912 28.0651 59.293 28.0128 59.1621 27.9342C58.717 27.6462 58.2653 27.4367 57.8071 27.3058C57.3488 27.1749 56.8513 27.1094 56.3145 27.1094C55.1624 27.1094 54.2852 27.5284 53.683 28.3663C53.0808 29.2042 52.7796 30.4217 52.7796 32.019C52.7796 35.2921 53.8925 36.9286 56.1182 36.9286C57.0608 36.9286 57.7285 36.7846 58.1213 36.4966V33.433H56.9233C56.5175 33.433 56.2294 33.2824 56.0592 32.9813C55.889 32.6671 55.8039 32.1237 55.8039 31.3513H61.1063Z" fill="#1A1A1A"/>
<path d="M131.792 14.8611V16.9427H123.701V3.1958H126.725V14.8611H131.792Z" fill="#1A1A1A"/>
<path d="M121.723 14.8611V16.9427H113.632V3.1958H116.657V14.8611H121.723Z" fill="#1A1A1A"/>
<path d="M111.068 14.8611C111.068 15.6597 110.996 16.2096 110.852 16.5107C110.708 16.7987 110.44 16.9427 110.047 16.9427H102.25V3.1958H110.852V5.27748H105.275V8.81239H109.909V10.8941H105.275V14.8611H111.068Z" fill="#1A1A1A"/>
<path d="M97.9693 9.83359C98.6501 10.03 99.2065 10.4162 99.6386 10.9923C100.084 11.5553 100.306 12.2033 100.306 12.9365C100.306 14.2065 99.8677 15.1949 98.9905 15.9019C98.1133 16.5958 96.8761 16.9427 95.2788 16.9427H90.1729V3.1958H95.0825C96.4964 3.1958 97.6158 3.54275 98.4406 4.23664C99.2654 4.91744 99.6778 5.84044 99.6778 7.00566C99.6778 7.67336 99.5273 8.25597 99.2262 8.75348C98.925 9.25098 98.5061 9.61102 97.9693 9.83359ZM96.6143 7.00566C96.6143 6.40341 96.4244 5.96482 96.0447 5.68988C95.6782 5.41495 95.0955 5.27748 94.2969 5.27748H93.1972V8.89095H94.238C95.0628 8.89095 95.6651 8.74039 96.0447 8.43926C96.4244 8.13814 96.6143 7.66027 96.6143 7.00566ZM94.6897 14.8611C95.3705 14.8611 95.8876 14.8087 96.2411 14.704C96.6077 14.5861 96.863 14.3897 97.007 14.1148C97.1641 13.8399 97.2427 13.4471 97.2427 12.9365C97.2427 12.2164 97.0463 11.7124 96.6535 11.4243C96.2739 11.1232 95.6061 10.9727 94.6504 10.9727H93.1972V14.8611H94.6897Z" fill="#1A1A1A"/>
<path d="M83.3192 3.1958C83.3715 3.51002 83.3977 3.79805 83.3977 4.0599C83.3977 4.50503 83.3257 4.83234 83.1817 5.04182C83.0377 5.25129 82.8086 5.35603 82.4943 5.35603H79.8628V16.9427H76.8777V5.35603H73.4214V3.1958H83.3192Z" fill="#1A1A1A"/>
<path d="M70.8615 16.9427C70.6651 15.5419 70.4753 14.4094 70.292 13.5453H64.9503C64.767 14.4094 64.5772 15.5419 64.3808 16.9427H61.4351C61.9326 12.1902 63.4905 7.6079 66.109 3.1958H69.153C71.7583 7.58172 73.3098 12.1641 73.8073 16.9427H70.8615ZM69.8207 11.3851C69.2708 9.2248 68.5376 7.24132 67.6212 5.43458C66.7047 7.24132 65.9715 9.2248 65.4217 11.3851H69.8207Z" fill="#1A1A1A"/>
<path d="M56.1574 17.1397C54.0758 17.1397 52.472 16.5309 51.346 15.3133C50.2332 14.0957 49.6768 12.3544 49.6768 10.0895C49.6768 8.61004 49.9321 7.34009 50.4427 6.27962C50.9663 5.21914 51.7126 4.40742 52.6814 3.84445C53.6503 3.28148 54.8089 3 56.1574 3C56.9822 3 57.7743 3.14401 58.5337 3.43205C59.3061 3.70698 59.9149 4.08011 60.3601 4.55143C60.2946 4.97039 60.1309 5.36316 59.8691 5.72974C59.6073 6.09632 59.365 6.27962 59.1425 6.27962C58.9592 6.27962 58.789 6.2207 58.6319 6.10287C58.1867 5.76247 57.7678 5.52026 57.375 5.37625C56.9953 5.23223 56.5764 5.16023 56.1182 5.16023C53.8925 5.16023 52.7796 6.80331 52.7796 10.0895C52.7796 13.3494 53.8925 14.9794 56.1182 14.9794C56.7073 14.9794 57.2703 14.8616 57.8071 14.6259C58.3569 14.3903 58.8348 14.0499 59.2407 13.6047C59.5418 13.7488 59.784 13.9517 59.9673 14.2135C60.1506 14.4623 60.2422 14.7241 60.2422 14.9991C60.2422 15.3787 60.0524 15.7322 59.6727 16.0595C59.3061 16.3869 58.8086 16.6487 58.1802 16.8451C57.5518 17.0415 56.8775 17.1397 56.1574 17.1397Z" fill="#1A1A1A"/>
<mask id="mask0_422_877" style="mask-type:luminance" maskUnits="userSpaceOnUse" x="0" y="0" width="43" height="43">
<path d="M42.9581 0H0V42.9581H42.9581V0Z" fill="white"/>
</mask>
<g mask="url(#mask0_422_877)">
<path d="M21.4791 0C9.61523 0 0 9.61523 0 21.4791V37.5883C0 40.5501 2.408 42.9581 5.36976 42.9581H8.96079C8.40704 42.4631 8.05465 41.7499 8.05465 40.9444V31.5474C8.05465 29.8022 9.00274 28.2836 10.4123 27.4697L12.1743 22.0412C12.8035 20.1031 14.6074 18.7942 16.6463 18.7942H26.3118C28.3507 18.7942 30.1546 20.1031 30.7838 22.0412L32.5458 27.4697C33.9554 28.2836 34.9119 29.8022 34.9119 31.5474V40.9444C34.9119 41.7499 34.5595 42.4631 34.0057 42.9581H37.5883C40.5501 42.9581 42.9581 40.5501 42.9581 37.5883V21.4791C42.9581 9.61523 33.3429 0 21.4791 0ZM30.4398 42.9581C29.8861 42.4631 29.5337 41.7499 29.5337 40.9444V37.5883H13.4244V40.9444C13.4244 41.7499 13.072 42.4631 12.5183 42.9581H30.4398ZM16.0086 23.283L14.8508 26.8488H28.1074L26.9495 23.283C26.8572 23.0061 26.6055 22.8215 26.3118 22.8215H16.6463C16.3526 22.8215 16.1009 23.0061 16.0086 23.283ZM14.0956 34.2322C14.6297 34.2322 15.1419 34.0201 15.5195 33.6425C15.8971 33.2648 16.1093 32.7526 16.1093 32.2186C16.1093 31.6845 15.8971 31.1723 15.5195 30.7947C15.1419 30.4171 14.6297 30.2049 14.0956 30.2049C13.5616 30.2049 13.0494 30.4171 12.6718 30.7947C12.2941 31.1723 12.082 31.6845 12.082 32.2186C12.082 32.7526 12.2941 33.2648 12.6718 33.6425C13.0494 34.0201 13.5616 34.2322 14.0956 34.2322ZM30.8761 32.2186C30.8761 31.6845 30.664 31.1723 30.2864 30.7947C29.9087 30.4171 29.3965 30.2049 28.8625 30.2049C28.3284 30.2049 27.8162 30.4171 27.4386 30.7947C27.061 31.1723 26.8488 31.6845 26.8488 32.2186C26.8488 32.7526 27.061 33.2648 27.4386 33.6425C27.8162 34.0201 28.3284 34.2322 28.8625 34.2322C29.3965 34.2322 29.9087 34.0201 30.2864 33.6425C30.664 33.2648 30.8761 32.7526 30.8761 32.2186Z" fill="#1A1A1A"/>
</g>
</g>
<defs>
<clipPath id="clip0_422_877">
<rect width="170" height="43" fill="white"/>
</clipPath>
</defs>
</svg>
